<?xml version="1.0" encoding="UTF-8"?>
<svg version="1.1" xmlns="http://www.w3.org/2000/svg" width="316" height="312">
<path d="M0 0 C104.28 0 208.56 0 316 0 C316 102.96 316 205.92 316 312 C211.72 312 107.44 312 0 312 C0 209.04 0 106.08 0 0 Z " fill="#FEFEFE" transform="translate(0,0)"/>
<path d="M0 0 C104.28 0 208.56 0 316 0 C316 102.96 316 205.92 316 312 C211.72 312 107.44 312 0 312 C0 209.04 0 106.08 0 0 Z M134 6 C137.43743404 7.96061053 140.83266506 8.73800563 144.6875 9.5625 C150.89518414 10.89518414 150.89518414 10.89518414 152 12 C153.34267413 12.08631874 154.68974322 12.10706473 156.03515625 12.09765625 C156.84404297 12.09443359 157.65292969 12.09121094 158.48632812 12.08789062 C159.7615332 12.07532227 159.7615332 12.07532227 161.0625 12.0625 C161.91650391 12.05798828 162.77050781 12.05347656 163.65039062 12.04882812 C165.76695663 12.03700373 167.88348685 12.01906769 170 12 C159.59762998 15.46745667 147.88195656 12.64070636 137.64453125 9.875 C133.33468418 8.79405369 133.33468418 8.79405369 129 9 C126.23749076 10.75850335 126.23749076 10.75850335 123.5 13.125 C115.51967421 19.49644991 104.33064736 26.48533737 93.8125 25.875 C89.65637457 26.24212441 87.86457931 27.84871629 85.15673828 30.95361328 C84.71313965 31.4845459 84.26954102 32.01547852 83.8125 32.5625 C75.74130216 42.21403205 63.73972629 48.85520356 51.41015625 51.5703125 C47.56934114 53.84865663 47.16250639 57.35740119 46 61.5 C45.49063185 63.14737352 44.97633418 64.7932312 44.45703125 66.4375 C44.20904785 67.22898437 43.96106445 68.02046875 43.70556641 68.8359375 C40.59760456 78.36845438 35.0208681 84.9791319 28 92 C27.77564809 94.1859152 27.57126792 96.37388447 27.375 98.5625 C25.89668323 111.34731671 20.11764155 122.23496665 12.50390625 132.44921875 C10.81619063 135.31175979 10.57877452 136.73820271 11 140 C11.69975701 141.63276636 12.40375126 143.26395013 13.13671875 144.88208008 C16.79501633 153.85711727 17.18199056 162.20483375 16.6875 171.75 C16.43204302 180.89819115 17.02132295 187.0222917 21.95507812 194.72021484 C25.76296376 201.13060025 25.76015185 207.55874103 26.1875 214.875 C26.52460401 223.99935886 26.52460401 223.99935886 30.78125 231.7109375 C33.9190122 234.31248813 37.39243664 236.12782849 41 238 C48.09705686 243.38002697 53.71958568 249.43506061 56.9375 257.8125 C58.28112519 261.07318037 59.25064463 262.59994514 62.5 264.0625 C66.04006816 265.17249072 66.04006816 265.17249072 70 265 C70 265.66 70 266.32 70 267 C71.483338 267.93715922 73.0144669 268.79907474 74.5625 269.625 C80.64794272 273.16842234 85.08402162 277.47888016 88.46875 283.69921875 C90.4267455 286.9363764 91.86929967 288.82966315 95 291 C100.17688517 292.16153831 105.43404127 292.0186307 110.7109375 291.9375 C118.38301178 291.86466161 125.32107234 293.39317894 132.3125 296.5625 C138.6427489 299.41068942 142.06611537 300.40441281 148.90283203 298.50683594 C152.22701928 297.70345844 155.53723062 297.61893098 158.9375 297.625 C160.0207959 297.62197876 160.0207959 297.62197876 161.12597656 297.61889648 C167.44734956 297.73426495 173.30908052 298.94788738 179.37866211 300.66455078 C183.29564565 301.75109663 186.12167141 302.3780863 190 301 C192.38104302 299.59773523 192.38104302 299.59773523 194.6875 297.8125 C206.67669949 289.10776684 206.67669949 289.10776684 213 287 C213 286.34 213 285.68 213 285 C214.12277344 284.97164063 215.24554688 284.94328125 216.40234375 284.9140625 C225.09867093 284.60090277 225.09867093 284.60090277 232.7109375 280.921875 C234.12237881 279.21135505 235.48976682 277.46359992 236.8125 275.68359375 C241.13312808 270.38310894 248.11470862 265.19388663 255 264 C255 263.34 255 262.68 255 262 C255.804375 261.9175 256.60875 261.835 257.4375 261.75 C262.02591984 260.78401688 266.10381326 259.68765366 270 257 C271.80957845 254.08018666 272.54587157 251.07803912 273.3125 247.75 C275.62653682 238.78926169 278.09526422 231.54867908 284.5625 224.6875 C285.70912109 223.45580078 285.70912109 223.45580078 286.87890625 222.19921875 C289 220 289 220 290.734375 218.65625 C292.78821959 215.96850276 292.48749663 213.13386745 292.6875 209.8125 C293.68916112 198.71404383 298.86253966 189.56455421 305 180.4375 C307.35373665 176.39201514 307.3442223 174.61831579 307 170 C306.43731606 168.09290336 305.86949884 166.1860515 305.22314453 164.30566406 C302.25386258 155.60833449 301.80169065 147.90693393 302.125 138.75 C302.424834 129.16423159 301.79694078 123.46317583 296.75390625 115.2109375 C294.71758714 111.48297691 293.85696022 108.14974219 293.125 104 C293.00382812 103.3306543 292.88265625 102.66130859 292.7578125 101.97167969 C292.22487216 98.66648646 292.01098431 95.57556635 292.09765625 92.2265625 C292.43779251 85.91901023 292.43779251 85.91901023 289.67236328 80.49023438 C286.28589988 77.56065117 282.55491744 75.27486333 278.6965332 73.02539062 C274.56002762 70.52527213 271.54658066 67.70818648 268.8125 63.75 C267.4105596 61.65717637 267.4105596 61.65717637 266 60 C265.34 60 264.68 60 264 60 C263.9175 59.319375 263.835 58.63875 263.75 57.9375 C262.76913141 54.09576471 261.68768707 50.93140681 259 48 C256.35786826 46.51299274 253.66920086 45.37839385 250.8671875 44.22265625 C240.74217715 39.90504284 232.74013025 31.98988602 226.94140625 22.703125 C222.44917768 18.5748087 218.0823702 19.18588661 212.1875 19.25 C202.45112307 19.21431383 194.84925183 18.41552788 185.8125 14.5 C184.82894531 14.0771875 183.84539062 13.654375 182.83203125 13.21875 C181.89746094 12.8165625 180.96289062 12.414375 180 12 C179.07574219 11.6596875 178.15148437 11.319375 177.19921875 10.96875 C175 10 175 10 174 8 C160.61145826 0.55630761 147.73115696 -2.85881094 134 6 Z " fill="#5C82C9" transform="translate(0,0)"/>
<path d="M0 0 C46.53 0 93.06 0 141 0 C139.68 0.99 138.36 1.98 137 3 C135.8553125 3.86625 135.8553125 3.86625 134.6875 4.75 C131.03544914 6.44862831 128.96557478 5.69240195 125 5 C114.62440245 4.04743808 107.52640014 6.22894142 99.375 12.6875 C97.30376279 14.51170892 95.89268446 16.16670375 94.390625 18.5 C91.51188797 22.88179442 89.25633347 25.94669646 84.02734375 27.16796875 C80.35041238 27.82192648 76.64543859 28.24570089 72.93945312 28.69921875 C66.56826082 29.68729893 60.23204801 33.13490326 56 38 C53.35223023 41.90498419 50.94145748 45.92806654 48.98828125 50.2265625 C47.44261649 53.00020598 44.82463203 53.61336246 42 55 C35.29480563 59.4507616 30.42054983 63.53434791 28.359375 71.46484375 C27.58111904 75.33944661 26.97197737 78.99118515 27.08203125 82.953125 C27.15669146 88.1386157 26.84603393 90.96770744 23.48046875 95.07421875 C21.39298448 97.154737 19.21379366 99.12567148 17.03125 101.10546875 C11.14826248 106.50242321 7.38148265 113.05335862 6.8671875 121.0703125 C6.86976563 121.74835938 6.87234375 122.42640625 6.875 123.125 C6.87757813 123.90101562 6.88015625 124.67703125 6.8828125 125.4765625 C7.00868428 128.18700158 7.38114388 130.81261972 7.75 133.5 C8.16368846 137.48795675 7.9344048 139.77230109 6.0625 143.3125 C2.63826317 149.97007544 2.89194099 157.69219839 4.73046875 164.83984375 C6.27860794 168.94083288 8.10693448 172.13897715 10.8125 175.5625 C14.58554683 181.22207025 12.83942116 188.5462409 12.19628906 194.97900391 C11.31355831 204.06761732 11.70263409 211.32699004 17.37890625 218.8203125 C18.57098627 220.2263556 19.78374249 221.61481784 21 223 C21 223.66 21 224.32 21 225 C21.928125 225.433125 21.928125 225.433125 22.875 225.875 C25 227 25 227 27 229 C27.33560913 230.86449516 27.595711 232.74298559 27.8125 234.625 C29.07047207 242.65297446 31.73580323 247.484564 38.1875 252.4375 C40.0990561 253.77887875 41.9118691 254.95593455 44 256 C44 256.66 44 257.32 44 258 C44.58007812 258.19335938 45.16015625 258.38671875 45.7578125 258.5859375 C48.171875 259.390625 50.5859375 260.1953125 53 261 C54.00804687 261.20496094 55.01609375 261.40992188 56.0546875 261.62109375 C60.32255329 263.61917946 61.2009255 266.49451847 63 270.6875 C67.2577387 279.79237095 70.85778481 285.63211208 80.2265625 290.03515625 C83.19560946 291.06805005 85.87868399 291.42503008 89 291.75 C95.35096268 292.57342392 98.32214133 295.48172892 102.78515625 299.8671875 C107.72382789 304.62294537 112.2573705 305.17079487 118.875 305.3125 C123.7327633 305.21462354 128.17860328 304.81577234 132.83984375 303.4375 C139.43898907 302.10096424 143.96147955 303.45173917 149.75 306.375 C150.40871094 306.69210937 151.06742188 307.00921875 151.74609375 307.3359375 C154.63574415 308.74266386 157.32268154 310.21512102 160 312 C107.2 312 54.4 312 0 312 C0 209.04 0 106.08 0 0 Z " fill="#FEFEFE" transform="translate(0,0)"/>
<path d="M0 0 C1.14004486 0.00565979 2.28008972 0.01131958 3.4546814 0.01715088 C7.06137817 0.03936841 10.6670459 0.08953887 14.2734375 0.140625 C16.73305847 0.16070883 19.19269517 0.17895628 21.65234375 0.1953125 C27.65138703 0.23918515 33.64983871 0.30594974 39.6484375 0.390625 C38.43095322 1.27839378 38.43095322 1.27839378 37.18887329 2.18409729 C33.87115208 5.54030543 34.03537984 8.89461049 33.97079468 13.43450928 C33.98597641 15.04848602 33.98597641 15.04848602 34.00146484 16.69506836 C33.98832245 18.40808891 33.98832245 18.40808891 33.97491455 20.15571594 C33.95290712 23.93101998 33.96748067 27.70515278 33.984375 31.48046875 C33.98100706 34.10454025 33.97615464 36.72861023 33.96987915 39.35267639 C33.96078935 44.85300376 33.97275111 50.35299516 33.99658203 55.85327148 C34.02377911 62.20361883 34.01498779 68.55316315 33.98745 74.90349096 C33.96198394 81.02196099 33.9647332 87.14007631 33.97935867 93.25857735 C33.98269374 95.8577034 33.97860216 98.45684995 33.96696091 101.05595207 C33.95425719 104.69011508 33.97362692 108.3227387 34.00146484 111.95678711 C33.99134369 113.03074738 33.98122253 114.10470764 33.97079468 115.21121216 C33.9848938 116.20510452 33.99899292 117.19899689 34.01351929 118.2230072 C34.01540442 119.08115493 34.01728954 119.93930265 34.0192318 120.82345486 C34.67629295 124.31649142 34.67629295 124.31649142 39.6484375 129.390625 C27.4384375 129.390625 15.2284375 129.390625 2.6484375 129.390625 C4.2984375 127.410625 5.9484375 125.430625 7.6484375 123.390625 C8.38060427 121.20012137 8.38060427 121.20012137 8.30786133 119.03759766 C8.33732597 117.83703232 8.33732597 117.83703232 8.36738586 116.61221313 C8.36345322 115.76822968 8.35952057 114.92424622 8.35546875 114.0546875 C8.37059006 113.17533539 8.38571136 112.29598328 8.40129089 111.38998413 C8.44406826 108.59826821 8.45299608 105.8076356 8.4609375 103.015625 C8.48408961 101.11585682 8.50945643 99.21611425 8.53710938 97.31640625 C8.60401021 92.67389385 8.62507005 88.03437401 8.6484375 83.390625 C0.7284375 83.390625 -7.1915625 83.390625 -15.3515625 83.390625 C-15.25875 86.67902344 -15.1659375 89.96742188 -15.0703125 93.35546875 C-15.007811 96.56251867 -14.95929995 99.76949915 -14.91210938 102.97680664 C-14.87203027 105.19521764 -14.81754928 107.41341933 -14.74804688 109.63110352 C-14.11154837 130.47174936 -14.11154837 130.47174936 -19.203125 136.01953125 C-20.57103348 137.16132537 -21.95179295 138.28812211 -23.3515625 139.390625 C-31.5051427 153.79175367 -31.88403801 169.53316195 -28.3515625 185.390625 C-28.0155558 187.05675476 -27.68146578 188.72327599 -27.3515625 190.390625 C-36.8256372 181.47611755 -40.65718336 172.02379595 -41.23058605 159.06288528 C-41.35327656 152.87234237 -41.33933749 146.69016567 -41.2615087 140.49921513 C-41.2221405 136.73998685 -41.22675481 132.98077311 -41.22554016 129.22137451 C-41.21726587 122.91724801 -41.17893378 116.61390436 -41.11987305 110.31005859 C-41.0520367 103.05259723 -41.02222894 95.79580211 -41.014898 88.53804231 C-41.00698737 80.75973317 -40.97617043 72.981653 -40.93610406 65.2034483 C-40.9258472 62.98302736 -40.91924494 60.7626191 -40.91327477 58.54218292 C-40.90034173 54.38624553 -40.86117339 50.23093971 -40.8190918 46.07519531 C-40.81730927 44.86242416 -40.81552673 43.64965302 -40.81369019 42.40013123 C-40.63464424 29.31736149 -38.41700469 19.75384444 -29.3125 10.265625 C-20.55686167 1.85031184 -11.94103854 -0.2270391 0 0 Z " fill="#E41C1C" transform="translate(161.3515625,61.609375)"/>
<path d="M0 0 C0.33 0 0.66 0 1 0 C1 49.83 1 99.66 1 151 C-45.86 151 -92.72 151 -141 151 C-138.62905601 149.41937067 -136.4213606 148.17309564 -133.875 146.9375 C-131.24526174 145.74120952 -131.24526174 145.74120952 -129 144 C-125.13173051 144.00760722 -121.27384841 144.07753125 -117.40820312 144.21484375 C-109.28116852 144.35420054 -103.28680564 142.72193658 -97.27539062 137.11914062 C-96.79263672 136.64669922 -96.30988281 136.17425781 -95.8125 135.6875 C-95.0709668 134.99624023 -95.0709668 134.99624023 -94.31445312 134.29101562 C-91.80454665 131.91338354 -89.6723047 129.55945471 -87.65234375 126.75390625 C-84.17647555 123.14494147 -81.57859498 122.80904459 -76.75 122.25 C-75.23547777 122.03132393 -73.72115196 121.81128288 -72.20703125 121.58984375 C-71.48338379 121.49171387 -70.75973633 121.39358398 -70.01416016 121.29248047 C-66.29054501 120.75176642 -62.65885079 119.86481928 -59 119 C-59 118.34 -59 117.68 -59 117 C-55.53846154 114 -55.53846154 114 -53 114 C-51.82215521 111.67828671 -50.70311436 109.34718897 -49.625 106.9765625 C-46.17694065 99.86494009 -43.46783983 95.97922302 -36.43359375 92.37109375 C-30.88462254 89.24478734 -27.22003955 84.49699789 -25.1875 78.5 C-24.18132794 74.67654618 -23.811863 70.93225703 -23.49682617 66.99682617 C-22.60082031 56.68267125 -22.60082031 56.68267125 -18.375 52.6875 C-17.31539062 51.81738281 -17.31539062 51.81738281 -16.234375 50.9296875 C-10.8442292 46.27456159 -6.2936721 39.75369358 -4 33 C-3.77508704 30.49208657 -3.77508704 30.49208657 -3.91015625 27.91015625 C-3.93013672 26.96076172 -3.95011719 26.01136719 -3.97070312 25.03320312 C-4.0317843 23.05651221 -4.09687335 21.07994099 -4.16601562 19.10351562 C-4.27563213 13.52819357 -4.0184315 9.88005296 -1 5 C-0.30092586 2.26427415 -0.30092586 2.26427415 0 0 Z " fill="#FDFEFE" transform="translate(315,161)"/>
<path d="M0 0 C51.15 0 102.3 0 155 0 C155 49.17 155 98.34 155 149 C154.34 147.68 153.68 146.36 153 145 C152.35804688 143.88109375 151.71609375 142.7621875 151.0546875 141.609375 C150.70019531 140.98160156 150.34570312 140.35382813 149.98046875 139.70703125 C149.24825622 138.41078221 148.50355626 137.12150178 147.74609375 135.83984375 C144.16076913 129.39151266 144.45242398 124.17512517 146 117 C146.84615314 104.43788037 145.03786501 96.87833325 137.03515625 87.1640625 C135.11065501 84.95511813 135.11065501 84.95511813 132.80859375 83.53515625 C130.35426416 81.45189161 130.35592123 79.96685193 130 76.8125 C128.83422548 69.25987532 126.54036036 63.43604353 120.46484375 58.5703125 C116.39808821 55.97944764 112.05898355 53.91517245 107.68652344 51.890625 C100.79711118 48.64854864 97.7050092 45.0066866 94.5 38.0625 C90.92561779 30.36696936 87.0289149 24.32676854 79 21 C76.3501022 20.50744371 73.72699128 20.07204991 71.0625 19.6875 C64.55629945 18.72381197 60.62033048 16.99343 56.1875 12.03515625 C50.43923242 6.68721445 44.60465932 5.37788206 36.9375 5.625 C35.7918457 5.62693359 35.7918457 5.62693359 34.62304688 5.62890625 C29.74625413 5.70399801 25.70281781 6.6408041 21 8 C15.13362304 8.58069873 11.56395566 7.24153866 6.5625 4.5 C5.92634766 4.16613281 5.29019531 3.83226562 4.63476562 3.48828125 C3.08306893 2.67159878 1.54052429 1.8375666 0 1 C0 0.67 0 0.34 0 0 Z " fill="#FDFDFE" transform="translate(161,0)"/>
<path d="M0 0 C1.65 0.33 3.3 0.66 5 1 C8.84190585 11.62012545 10.2555462 20.81135253 9.8125 32.125 C9.50865216 41.19443693 10.09311713 47.04617318 14.92919922 54.70629883 C20.28175186 63.82426836 20.03066538 75.12259698 20.73803711 85.43481445 C21.11915525 89.16678863 21.53932298 90.61852455 24.4765625 93.05078125 C25.51554687 93.79714844 26.55453125 94.54351562 27.625 95.3125 C28.72739828 96.12516956 29.82896562 96.93896753 30.9296875 97.75390625 C32.63536915 99.00170135 34.34510947 100.24418123 36.0703125 101.46484375 C42.00010985 106.00182823 45.3564093 112.62135031 49 119 C48.34 119.99 47.68 120.98 47 122 C45.5410574 121.52269162 44.08286504 121.04308958 42.625 120.5625 C41.81289063 120.29566406 41.00078125 120.02882813 40.1640625 119.75390625 C38 119 38 119 36 118 C36 117.34 36 116.68 36 116 C35.34 115.814375 34.68 115.62875 34 115.4375 C28.71443344 112.90483269 24.47430799 109.11317479 21.125 104.3125 C19.72429244 100.18819441 19.24969921 96.13158439 18.8203125 91.8046875 C17.7470481 88.13514539 16.04660902 87.22857902 13 85 C11.54083757 83.25952157 10.14453193 81.46459536 8.8125 79.625 C8.13832031 78.70976562 7.46414063 77.79453125 6.76953125 76.8515625 C4.02461913 72.42819419 2.72008964 68.38768315 2.8125 63.1875 C2.82796875 62.25035156 2.8434375 61.31320313 2.859375 60.34765625 C2.96686602 57.7887729 3.10252082 55.23907875 3.265625 52.68359375 C3.31356201 51.93118408 3.36149902 51.17877441 3.41088867 50.40356445 C3.51022175 48.91068903 3.61688728 47.41827925 3.73168945 45.92651367 C4.20413474 39.16733374 3.36095132 35.40359159 -0.0625 29.625 C-4.05803891 21.84522472 -4.45288277 13.73765567 -2.30859375 5.26953125 C-1.5 3.0625 -1.5 3.0625 0 0 Z " fill="#6085CA" transform="translate(8,140)"/>
<path d="M0 0 C0.66 0 1.32 0 2 0 C-2.04537925 8.75202241 -8.74448601 13.50061215 -17 18 C-17.82242188 18.50660156 -18.64484375 19.01320313 -19.4921875 19.53515625 C-21.9489198 20.97016344 -24.35786378 22.07640219 -27 23.125 C-27.825 23.45757812 -28.65 23.79015625 -29.5 24.1328125 C-31.98881193 24.99611914 -34.40804686 25.5464082 -37 26 C-37.07476562 26.54785156 -37.14953125 27.09570312 -37.2265625 27.66015625 C-39.40317914 40.78387423 -44.47244329 53.44516721 -54.66015625 62.31640625 C-57.56292181 65.64562151 -57.63877241 67.45173873 -57.875 71.8125 C-59.02809717 84.47614618 -64.91371905 95.26597663 -72.3984375 105.3515625 C-74.17398849 108.28771755 -74.65216796 110.61112215 -75 114 C-75.99 113.67 -76.98 113.34 -78 113 C-78.144375 113.763125 -78.28875 114.52625 -78.4375 115.3125 C-79 118 -79 118 -80 121 C-81.33428023 132.82657478 -78.69568266 140.75648909 -73 151 C-73.66 151.33 -74.32 151.66 -75 152 C-76.15143825 149.9195946 -77.29624112 147.83598003 -78.4375 145.75 C-78.92573242 144.87021484 -78.92573242 144.87021484 -79.42382812 143.97265625 C-83.52723117 136.44270014 -83.73516142 129.5203324 -83 121 C-82.11571721 118.59237291 -81.02082578 116.47008805 -79.82421875 114.20703125 C-78.21583106 109.90021113 -79.38123516 105.44737229 -80 101 C-80.78393258 91.03752352 -78.26883416 83.98995057 -72.04296875 76.2109375 C-70 74 -70 74 -67.61328125 72.1015625 C-62.37020692 67.82942786 -60.54216641 64.59397926 -59.8137207 57.98193359 C-59.63173379 55.52828852 -59.51964707 53.07902184 -59.4140625 50.62109375 C-59.00586374 43.39952196 -56.41670896 36.94513665 -51 32 C-42.68681983 25.56227328 -42.68681983 25.56227328 -38 24 C-36.71155365 21.87968014 -36.71155365 21.87968014 -35.625 19.3125 C-32.95250199 13.70266183 -30.16926706 8.28491373 -24 6 C-23.505 6.99 -23.505 6.99 -23 8 C-23.45890625 8.3403125 -23.9178125 8.680625 -24.390625 9.03125 C-25.00421875 9.5159375 -25.6178125 10.000625 -26.25 10.5 C-26.85328125 10.9640625 -27.4565625 11.428125 -28.078125 11.90625 C-30.81840879 14.89159982 -32.32664535 18.33665066 -34 22 C-14.29376705 14.79089752 -14.29376705 14.79089752 0 0 Z " fill="#567EC9" transform="translate(86,27)"/>
<path d="M0 0 C2.84625 0.144375 5.6925 0.28875 8.625 0.4375 C8.625 11.3275 8.625 22.2175 8.625 33.4375 C0.705 33.4375 -7.215 33.4375 -15.375 33.4375 C-15.53739022 29.24843367 -15.65612844 25.06569465 -15.75 20.875 C-15.80027344 19.69357422 -15.85054687 18.51214844 -15.90234375 17.29492188 C-16.06835016 7.41754031 -16.06835016 7.41754031 -12.9375 3.125 C-9.05325673 -0.57025835 -5.0952827 -0.36686406 0 0 Z " fill="#FEFCFC" transform="translate(161.375,86.5625)"/>
<path d="M0 0 C12.54732263 6.5464292 24.61204408 16.64723966 30 30 C30 30.99 30 31.98 30 33 C30.70125 33.12375 31.4025 33.2475 32.125 33.375 C35.17656387 34.03838345 38.05340938 34.97211955 41 36 C41 36.66 41 37.32 41 38 C41.804375 38.165 42.60875 38.33 43.4375 38.5 C52.50220867 42.31671944 59.19393463 50.91341455 64.31079102 59.09619141 C65.82805457 61.17025464 65.82805457 61.17025464 68.10961914 61.51416016 C68.91004639 61.52237793 69.71047363 61.5305957 70.53515625 61.5390625 C71.87416992 61.57386719 71.87416992 61.57386719 73.24023438 61.609375 C74.63725586 61.61710937 74.63725586 61.61710937 76.0625 61.625 C85.63236633 61.76142005 94.41285645 62.5935547 103.3125 66.375 C104.76076172 66.97441406 104.76076172 66.97441406 106.23828125 67.5859375 C109.16774288 69.08588815 111.50530075 70.86428297 114 73 C110.25807298 73.5846761 108.32918414 72.73125761 105.3125 70.6875 C96.06101632 64.59182269 86.12294276 64.53532407 75.375 64.4375 C51.21334892 64.1562202 51.21334892 64.1562202 42.1875 56.453125 C37.36922315 51.41974651 30 41.27500388 30 34 C29.0409375 33.814375 29.0409375 33.814375 28.0625 33.625 C27.381875 33.41875 26.70125 33.2125 26 33 C25.67 32.34 25.34 31.68 25 31 C25.66 30.67 26.32 30.34 27 30 C20.24850875 17.6314144 11.66048997 9.77365998 0 2 C0 1.34 0 0.68 0 0 Z " fill="#5E85CD" transform="translate(29,229)"/>
<path d="M0 0 C7.14916083 -0.66195934 12.03420989 1.0065333 18 5 C24.31282351 10.3914252 27.61433919 17.55898722 31 25 C30.34 25.33 29.68 25.66 29 26 C16.38315754 21.18618934 7.77157864 12.84782852 0 2 C0 1.34 0 0.68 0 0 Z " fill="#F3F6F9" transform="translate(227,20)"/>
<path d="M0 0 C14.26137956 4.87631363 23.07493238 14.30246456 32 26 C32 26.33 32 26.66 32 27 C22.3992607 26.60652708 15.45041177 24.35262349 8.7421875 17.2734375 C5.41612719 12.93315252 0 5.58001045 0 0 Z " fill="#F7F8FB" transform="translate(61,264)"/>
<path d="M0 0 C2.83832182 2.25596743 4.86457242 4.83631136 7.11328125 7.6796875 C-20.16304988 8.58104059 -20.16304988 8.58104059 -32.88671875 0.6796875 C-31.88671875 -1.3203125 -31.88671875 -1.3203125 -28.82421875 -2.4453125 C-19.19654714 -4.5790127 -8.78608552 -4.77538574 0 0 Z " fill="#F6F7FA" transform="translate(213.88671875,10.3203125)"/>
<path d="M0 0 C0.49799995 11.95199868 -3.08265796 19.73392168 -9 30 C-9.495 30.86238281 -9.99 31.72476563 -10.5 32.61328125 C-11.5973674 34.45202484 -12.78835783 36.23446426 -14 38 C-14.66 38 -15.32 38 -16 38 C-16.05447822 35.47886908 -16.09389852 32.9589415 -16.125 30.4375 C-16.14175781 29.73302734 -16.15851562 29.02855469 -16.17578125 28.30273438 C-16.28257954 16.71512014 -10.82430083 9.07483263 -3 1 C-1 0 -1 0 0 0 Z " fill="#F6F7FB" transform="translate(25,96)"/>
<path d="M0 0 C0 0.99 0 1.98 0 3 C-7.34802731 7.79871171 -14.38267336 8.0256635 -23 7 C-29.42026046 5.18511073 -34.4663452 2.9689706 -39 -2 C-25.68894926 -6.25953624 -13.08311259 -3.54796274 0 0 Z " fill="#F3F5F9" transform="translate(183,303)"/>
<path d="M0 0 C0.69988037 0.2995459 1.39976074 0.5990918 2.12084961 0.90771484 C6.9410626 3.16990866 6.9410626 3.16990866 8.13671875 5.984375 C8.15347656 6.56703125 8.17023438 7.1496875 8.1875 7.75 C3.4375 8.875 3.4375 8.875 1.1875 7.75 C-2.1416003 7.72413574 -5.45602626 7.77758947 -8.78320312 7.87695312 C-13.01339483 7.94347788 -15.98551258 7.4901027 -19.8125 5.75 C-22.07434389 5.17194376 -24.34605021 4.63143329 -26.625 4.125 C-27.78644531 3.86460938 -28.94789063 3.60421875 -30.14453125 3.3359375 C-31.02496094 3.14257812 -31.90539062 2.94921875 -32.8125 2.75 C-23.95493584 -6.5778773 -10.84900178 -4.6755572 0 0 Z " fill="#F9FAFB" transform="translate(166.8125,4.25)"/>
<path d="M0 0 C0.34310016 10.80765518 -1.2243078 19.25238863 -8 28 C-11.38148645 31.15775861 -14.59952915 33.53317638 -19 35 C-17.92371402 25.90723914 -12.14158948 0 0 0 Z " fill="#F2F4F9" transform="translate(291,221)"/>
<path d="M0 0 C-1.16463764 5.67127894 -4.26047297 10.30625 -8.375 14.3125 C-15.75137121 19.05445292 -25.20726039 22 -34 22 C-29.36450413 11.75191845 -19.75882019 7.34581057 -10 3 C-9.06631592 2.57195068 -9.06631592 2.57195068 -8.11376953 2.13525391 C-5.22851229 0.84071344 -3.19949469 0 0 0 Z " fill="#F7F8FA" transform="translate(267,261)"/>
<path d="M0 0 C5.97605833 4.58276383 10.60427715 9.29668351 12 17 C12.3019149 24.70770989 12.24465491 32.37648866 11 40 C10.34 40 9.68 40 9 40 C1.55571145 26.90282923 -0.49924091 15.14364088 0 0 Z " fill="#F8F9FB" transform="translate(293,85)"/>
<path d="M0 0 C0 0.66 0 1.32 0 2 C-1.9692846 3.55501437 -3.92318665 4.97682255 -6 6.375 C-6.59868896 6.78057129 -7.19737793 7.18614258 -7.81420898 7.60400391 C-15.43772311 12.7028277 -25.79075436 19.30100625 -35.359375 17.57421875 C-36.17148438 17.28998047 -36.17148438 17.28998047 -37 17 C-35.46680021 15.24257731 -33.92302295 13.49437985 -32.375 11.75 C-31.51648438 10.77546875 -30.65796875 9.8009375 -29.7734375 8.796875 C-20.7009803 -0.35225085 -12.23266764 -0.30539253 0 0 Z " fill="#F7F8FB" transform="translate(128,7)"/>
<path d="M0 0 C-3.92095212 8.37324822 -10.15570954 13.11774754 -18.2890625 17.12890625 C-21.73141329 18.23502185 -24.7045796 18.19243776 -28.3125 18.125 C-29.56675781 18.10695313 -30.82101563 18.08890625 -32.11328125 18.0703125 C-33.06589844 18.04710937 -34.01851562 18.02390625 -35 18 C-33.47384776 13.36780553 -29.76637942 11.46235415 -25.875 8.9375 C-25.235625 8.50373047 -24.59625 8.06996094 -23.9375 7.62304688 C-16.51270297 2.72536449 -8.98425803 0 0 0 Z " fill="#F9FAFB" transform="translate(226,286)"/>
<path d="M0 0 C1.51261024 4.53783072 -0.37396262 7.76297798 -2 12.125 C-2.31888184 12.98359619 -2.63776367 13.84219238 -2.96630859 14.72680664 C-6.24399644 23.18330564 -10.45068061 29.73835315 -18 35 C-18.34696851 25.59329819 -17.43806768 16.96629212 -12 9 C-8.41068391 5.24081915 -4.736697 2.17803478 0 0 Z " fill="#F5F7FA" transform="translate(46,54)"/>
<path d="M0 0 C0.66 0 1.32 0 2 0 C2.79955001 1.51670364 3.58921388 3.03861998 4.375 4.5625 C4.81585937 5.40941406 5.25671875 6.25632813 5.7109375 7.12890625 C8.81426236 14.04085706 9.38020374 20.47631409 9.625 27.9375 C9.66367187 28.90751953 9.70234375 29.87753906 9.7421875 30.87695312 C9.83575076 33.25112076 9.92149208 35.62529492 10 38 C2.38222226 31.85696237 2.38222226 31.85696237 0.625 27.875 C0.32851563 27.23304688 0.03203125 26.59109375 -0.2734375 25.9296875 C-1.97407039 21.41295282 -2.163494 17.40691169 -2.1875 12.5625 C-2.20876953 10.61537109 -2.20876953 10.61537109 -2.23046875 8.62890625 C-2.01557702 5.24527201 -1.47166218 3.01894337 0 0 Z " fill="#F8F9FB" transform="translate(16,188)"/>
<path d="M0 0 C10.41519671 6.55771645 21.29109598 13.71858215 27 25 C27 26.32 27 27.64 27 29 C19.19258057 28.58908319 12.39935048 23.82504696 7.125 18.3125 C2.96493426 13.21814053 0 6.63432574 0 0 Z " fill="#F5F7FA" transform="translate(28,230)"/>
<path d="M0 0 C0.66 0 1.32 0 2 0 C8.64700092 10.32659071 11.89481621 18.64309142 10 31 C8.96526124 34.1261387 7.83976859 36.24034712 6 39 C-1.08817196 28.36774206 -1.98152414 15.38122598 -1 3 C-0.67 2.01 -0.34 1.02 0 0 Z " fill="#F7F8FB" transform="translate(304,132)"/>
<path d="M0 0 C0.66 0.33 1.32 0.66 2 1 C2.7759931 14.08841688 0.97548092 20.59346214 -7.6875 30.5 C-11.66619116 34.83309558 -11.66619116 34.83309558 -14 36 C-14.92124739 22.18128908 -8.67103013 11.90748908 -1 1 C-0.67 0.67 -0.34 0.34 0 0 Z " fill="#F4F6FA" transform="translate(308,178)"/>
<path d="M0 0 C0.66 0 1.32 0 2 0 C6.92437327 13.483403 10.30902034 25.61533305 7 40 C1.32416597 35.04019426 -2.83078457 26.54598432 -3.55859375 19.0234375 C-3.67725249 12.05747176 -3.07262418 6.27327437 0 0 Z " fill="#F3F5F9" transform="translate(8,140)"/>
<path d="M0 0 C-7.26710623 11.22839158 -17.701931 15.84166012 -30 20 C-30.99 20 -31.98 20 -33 20 C-32.10520354 14.183823 -28.29144519 9.71884012 -23.7734375 6.1640625 C-16.16322007 1.16880965 -8.92151657 -0.15121215 0 0 Z " fill="#F6F8FA" transform="translate(85,29)"/>
<path d="M0 0 C26.87504237 -0.93266298 26.87504237 -0.93266298 37.25 6.25 C37.8275 6.8275 38.405 7.405 39 8 C33.21930598 9.64224262 27.99996646 10.36476115 22 10.375 C21.24460937 10.39949219 20.48921875 10.42398437 19.7109375 10.44921875 C14.03555413 10.4784733 9.6631163 9.311066 5 6 C3.08530401 4.09634139 1.59650436 2.19519349 0 0 Z " fill="#F8F9FB" transform="translate(98,293)"/>
<path d="M0 0 C8.04704221 0.61900325 15.03772097 5.12144649 20.48828125 10.90234375 C23.31156962 14.81992993 25.01818942 19.28586539 26 24 C25.59375 26.33203125 25.59375 26.33203125 25 28 C4.82793393 12.92403483 4.82793393 12.92403483 0 2 C0 1.34 0 0.68 0 0 Z " fill="#F5F7FA" transform="translate(264,52)"/>
<path d="M0 0 C0.66 0 1.32 0 2 0 C0.19278129 4.93613468 -2.46483588 9.13501883 -5.24609375 13.57421875 C-9.81761871 22.5034557 -10.67661357 31.60919756 -11.5 41.5 C-12.69031121 55.79842969 -13.83328099 66.13255333 -25 76 C-27.3016735 77.5127351 -29.56542078 78.79158721 -32.0546875 79.96484375 C-34.10978729 81.05842095 -35.44460632 82.28319754 -37 84 C-36.17088548 79.09523817 -34.67288658 74.42378226 -33.1875 69.6875 C-32.8152832 68.46256836 -32.8152832 68.46256836 -32.43554688 67.21289062 C-29.97409386 59.35252541 -27.15148876 52.74954899 -21.4375 46.6875 C-20.67308594 45.86636719 -19.90867187 45.04523438 -19.12109375 44.19921875 C-17 42 -17 42 -15.265625 40.65625 C-13.21178041 37.96850276 -13.51250337 35.13386745 -13.3125 31.8125 C-12.47176166 22.39904023 -8.6542225 15.08307887 -4 7 C-3.62069336 6.33371582 -3.24138672 5.66743164 -2.85058594 4.98095703 C-1.90372406 3.31873474 -0.95232631 1.65909763 0 0 Z M-17.953125 44.6953125 C-26.94845687 54.21078261 -31.46630723 65.04294043 -33 78 C-24.05463327 74.14423848 -19.4177522 69.15550646 -15.74609375 60.12109375 C-13.75881801 54.47140409 -13.88178748 48.91062624 -14 43 C-16.17931448 42.78149821 -16.17931448 42.78149821 -17.953125 44.6953125 Z " fill="#557EC8" transform="translate(305,178)"/>
<path d="M0 0 C3.31474316 0.58751465 5.0056924 1.64048081 7.4375 3.9375 C12.73570473 8.94067709 17.64395264 9.30539114 24.625 9.1875 C25.82008179 9.17565674 25.82008179 9.17565674 27.03930664 9.16357422 C38.03578631 9.51881526 38.03578631 9.51881526 48 6 C63.57460804 1.38347589 77.81750477 4.60382765 93 9 C92.01 9.33 91.02 9.66 90 10 C89.67 10.66 89.34 11.32 89 12 C88.2575 11.731875 87.515 11.46375 86.75 11.1875 C74.75897609 7.39034243 62.22089005 4.34442284 50 9 C50.99 9.66 51.98 10.32 53 11 C53 11.66 53 12.32 53 13 C51.7315625 12.505 51.7315625 12.505 50.4375 12 C45.31824122 10.51076108 41.04429503 10.6760161 35.9375 12 C27.88283657 13.903328 18.22861445 14.82947658 10.88671875 10.41796875 C7.03909614 7.52627722 3.38484084 4.42401724 0 1 C0 0.67 0 0.34 0 0 Z " fill="#6B8DCB" transform="translate(95,293)"/>
<path d="M0 0 C-2.18366597 2.18366597 -3.37042417 2.54649807 -6.25 3.5 C-11.20780551 5.4018229 -15.27882281 8.04672454 -19.5625 11.125 C-20.1822168 11.56908203 -20.80193359 12.01316406 -21.44042969 12.47070312 C-24.72252005 14.78192883 -24.72252005 14.78192883 -27 18 C-13.20469794 17.78134247 -4.8744795 14.5710737 5 5 C5.99 5.495 5.99 5.495 7 6 C1.31015949 12.09841948 -4.54839492 18.27076153 -13 20 C-14.43325329 20.03436857 -15.86838001 20.01722149 -17.30078125 19.95703125 C-18.11353516 19.93576172 -18.92628906 19.91449219 -19.76367188 19.89257812 C-21.45159443 19.83954761 -23.13918821 19.77460209 -24.82617188 19.69726562 C-30.8674881 19.56852408 -33.96360558 20.68125532 -39 24 C-46.01157801 27.39199987 -54.24196627 27.1761785 -61.58203125 24.87890625 C-64.44745998 23.67902921 -67.23636682 22.41724778 -70 21 C-70 20.34 -70 19.68 -70 19 C-68.37433394 19.47690204 -66.74948689 19.95659666 -65.125 20.4375 C-64.22007812 20.70433594 -63.31515625 20.97117187 -62.3828125 21.24609375 C-60 22 -60 22 -58 23 C-49.34279748 23.64558601 -42.50212072 23.707213 -35 19 C-34.34 19 -33.68 19 -33 19 C-33 18.34 -33 17.68 -33 17 C-32.01 16.46375 -31.02 15.9275 -30 15.375 C-27.22877886 13.79779198 -24.70829695 12.07592228 -22.1875 10.125 C-15.5084187 4.9982833 -8.67221166 -0.2343841 0 0 Z " fill="#5D83CA" transform="translate(218,286)"/>
<path d="M0 0 C0.54011719 0.32355469 1.08023438 0.64710937 1.63671875 0.98046875 C-2.57037764 2.38283421 -6.89783824 2.64132111 -11.29492188 3.0546875 C-18.16214147 3.81271548 -22.91246683 6.24595861 -28.05078125 10.91796875 C-28.79714844 11.58699219 -29.54351562 12.25601562 -30.3125 12.9453125 C-32.66586442 15.18223804 -32.66586442 15.18223804 -35.36328125 18.98046875 C-31.73328125 18.65046875 -28.10328125 18.32046875 -24.36328125 17.98046875 C-23.86828125 18.97046875 -23.86828125 18.97046875 -23.36328125 19.98046875 C-28.56201553 22.0326007 -33.79351976 22.85024051 -39.36328125 22.98046875 C-40.02328125 22.65046875 -40.68328125 22.32046875 -41.36328125 21.98046875 C-41.36328125 22.64046875 -41.36328125 23.30046875 -41.36328125 23.98046875 C-42.29269531 24.09003906 -43.22210938 24.19960938 -44.1796875 24.3125 C-50.77790592 25.15877827 -56.39016149 26.06027687 -62.36328125 28.98046875 C-63.35328125 28.98046875 -64.34328125 28.98046875 -65.36328125 28.98046875 C-64.36328125 25.98046875 -64.36328125 25.98046875 -62.3515625 24.8828125 C-56.85758165 22.90177123 -52.01251299 21.80202904 -46.17578125 21.35546875 C-42.2070483 20.87179292 -40.05366467 20.59517776 -37.046875 17.91796875 C-35.74868093 16.19753378 -34.49590021 14.44195633 -33.2890625 12.65625 C-26.10634208 2.67620235 -12.2928564 -5.30319921 0 0 Z " fill="#7696D1" transform="translate(127.36328125,5.01953125)"/>
<path d="M0 0 C0.33 0 0.66 0 1 0 C1.6993462 4.74707724 2.04530347 9.12374335 1.83422852 13.93554688 C1.51252768 21.82048088 2.62720865 28.09722946 5.28100586 35.50585938 C7.14490007 40.86260875 7.2719236 44.5209445 6 50 C6.66 50 7.32 50 8 50 C8.33 48.68 8.66 47.36 9 46 C10.75150162 55.36048407 11.92294011 65.8415959 6.97265625 74.37109375 C2.48877947 80.34663647 -2.67005676 85.77545112 -8 91 C-8.33 91 -8.66 91 -9 91 C-9 89.02 -9 87.04 -9 85 C-8.01 85 -7.02 85 -6 85 C0.70540029 78.9737839 6.67686972 72.37272553 7.23046875 63.16796875 C7.28625325 59.43743498 7.17467161 55.72632772 7 52 C6.01 51.67 5.02 51.34 4 51 C4.0515625 49.85402344 4.103125 48.70804688 4.15625 47.52734375 C4.15625 42.85077521 2.94662183 38.96896692 1.5 34.5625 C-2.03972298 22.90065973 -1.62917723 11.99181271 0 0 Z " fill="#7897D0" transform="translate(302,127)"/>
<path d="M0 0 C0.33 0 0.66 0 1 0 C2.1984082 10.5459922 -4.13719102 19.80951248 -9.96459961 28.10375977 C-12.45083095 31.72997775 -13.60284372 34.61804239 -14 39 C-14.99 38.67 -15.98 38.34 -17 38 C-17.144375 38.763125 -17.28875 39.52625 -17.4375 40.3125 C-18 43 -18 43 -19 46 C-20.33428023 57.82657478 -17.69568266 65.75648909 -12 76 C-12.99 76.495 -12.99 76.495 -14 77 C-15.15143825 74.9195946 -16.29624112 72.83598003 -17.4375 70.75 C-17.76298828 70.16347656 -18.08847656 69.57695312 -18.42382812 68.97265625 C-22.52723117 61.44270014 -22.73516142 54.5203324 -22 46 C-21.11571721 43.59237291 -20.02082578 41.47008805 -18.82421875 39.20703125 C-17.49283666 35.64195598 -18.1234146 32.42785792 -18.62890625 28.72265625 C-19.17020381 24.75124155 -19.19067482 21.00417117 -19 17 C-18.34 16.34 -17.68 15.68 -17 15 C-16.67 20.61 -16.34 26.22 -16 32 C-15.34 32 -14.68 32 -14 32 C-13.7525 31.32066406 -13.505 30.64132813 -13.25 29.94140625 C-11.76346339 26.44339978 -9.91625668 23.21110515 -8 19.9375 C-3.54203864 12.46009631 -3.54203864 12.46009631 -0.875 4.25 C-0.70742188 3.45078125 -0.53984375 2.6515625 -0.3671875 1.828125 C-0.24601562 1.22484375 -0.12484375 0.6215625 0 0 Z " fill="#5D83CA" transform="translate(25,102)"/>
<path d="M0 0 C0.33 0 0.66 0 1 0 C1.05945801 0.60360352 1.11891602 1.20720703 1.18017578 1.82910156 C2.72709358 17.55448963 2.72709358 17.55448963 8.79296875 31.953125 C10 34 10 34 10 36 C10.66 36 11.32 36 12 36 C12.33 35.34 12.66 34.68 13 34 C13.24621094 34.99644531 13.49242187 35.99289063 13.74609375 37.01953125 C14.95352593 41.2460758 16.91156107 44.87429699 19.0625 48.6875 C23.79629981 57.1413124 25.60269882 64.81548806 23.43359375 74.5390625 C22.71051304 76.74237649 21.90445714 78.86515523 21 81 C20.71382813 81.69609375 20.42765625 82.3921875 20.1328125 83.109375 C19.44412507 84.74910698 18.72551556 86.37622708 18 88 C17.34 88 16.68 88 16 88 C15.8125 85.1875 15.8125 85.1875 16 82 C17.375 80.4375 17.375 80.4375 19 79 C22.18537591 72.6642523 22.19865892 64.90878038 21 58 C19.65850426 54.1835623 17.67072145 50.89801883 15.53125 47.4765625 C14 45 14 45 14 43 C12.515 43.495 12.515 43.495 11 44 C10.7421875 42.98808594 10.484375 41.97617188 10.21875 40.93359375 C9.10680463 37.04080612 7.40016038 33.64140377 5.5 30.0625 C0.22597007 19.73188414 -0.26840485 11.45194008 0 0 Z " fill="#6B8DCB" transform="translate(292,89)"/>
<path d="M0 0 C7.26309834 1.90224004 11.19242022 5.37818942 15 11.625 C16.0128022 13.40946102 17.01214973 15.20160592 18 17 C18.56460937 17.99773438 19.12921875 18.99546875 19.7109375 20.0234375 C24 27.69542254 24 27.69542254 24 30 C8.78962043 25.16237928 -1.76576632 16.93404254 -11 4 C-10.67 3.34 -10.34 2.68 -10 2 C-8.80117187 3.50240234 -8.80117187 3.50240234 -7.578125 5.03515625 C-0.269479 13.96333813 7.09318666 22.5906213 19 25 C14.73547032 15.39148155 10.94367569 7.32717793 1 2.5625 C0.34 2.376875 -0.32 2.19125 -1 2 C-0.67 1.34 -0.34 0.68 0 0 Z " fill="#4F7ACA" transform="translate(238,20)"/>
<path d="M0 0 C0 0.66 0 1.32 0 2 C-7.7452463 4.6113269 -15.06359833 6.49878304 -23.22265625 7.21484375 C-26.82789411 8.23404601 -27.95569009 9.94579119 -30 13 C-30.99 12.67 -31.98 12.34 -33 12 C-32.01 10.68 -31.02 9.36 -30 8 C-31.8253125 8.2784375 -31.8253125 8.2784375 -33.6875 8.5625 C-37.02977939 8.98993182 -39.71968417 8.92258883 -43 8 C-39.38894478 5.82971933 -35.89207026 5.41193503 -31.75 4.875 C-29.85507813 4.62363281 -29.85507813 4.62363281 -27.921875 4.3671875 C-26.47554687 4.18542969 -26.47554687 4.18542969 -25 4 C-25 4.66 -25 5.32 -25 6 C-24.154375 5.73445313 -23.30875 5.46890625 -22.4375 5.1953125 C-5.75182482 0 -5.75182482 0 0 0 Z " fill="#6B8DCB" transform="translate(256,278)"/>
<path d="M0 0 C3.94690003 -0.05003872 7.89367309 -0.08601633 11.84082031 -0.10986328 C13.83144637 -0.12467591 15.82198437 -0.15010992 17.8125 -0.17578125 C27.61036794 -0.22526543 36.23265529 0.5169875 45.3125 4.375 C46.27800781 4.77460938 47.24351562 5.17421875 48.23828125 5.5859375 C51.16774288 7.08588815 53.50530075 8.86428297 56 11 C52.25807298 11.5846761 50.32918414 10.73125761 47.3125 8.6875 C37.94304064 2.51858968 27.83964051 2.53403624 17 2.4375 C14.87633219 2.41366832 12.7530678 2.38563094 10.62963867 2.34571838 C8.72461152 2.31043849 6.81931978 2.29041815 4.9140625 2.27124023 C2 2 2 2 0 0 Z " fill="#5078C1" transform="translate(87,291)"/>
<path d="M0 0 C0.74362793 -0.02191406 1.48725586 -0.04382813 2.25341797 -0.06640625 C9.92434418 -0.03916212 15.66855867 3.00473305 21.25 8.1875 C21.9203125 8.80109375 22.590625 9.4146875 23.28125 10.046875 C24.00828125 10.73523438 24.00828125 10.73523438 24.75 11.4375 C24.09 12.0975 23.43 12.7575 22.75 13.4375 C22.25371094 12.96699219 21.75742188 12.49648438 21.24609375 12.01171875 C20.56675781 11.38910156 19.88742188 10.76648437 19.1875 10.125 C18.52621094 9.51011719 17.86492187 8.89523437 17.18359375 8.26171875 C9.37064198 2.40514013 1.03384501 2.72686221 -8.25 3.4375 C-11.71881356 4.16034259 -14.966043 5.11128659 -18.25 6.4375 C-18.25 5.7775 -18.25 5.1175 -18.25 4.4375 C-19.24 4.1075 -20.23 3.7775 -21.25 3.4375 C-14.18866539 1.1114133 -7.39857986 0.09801472 0 0 Z " fill="#6C90D1" transform="translate(198.25,4.5625)"/>
<path d="M0 0 C0.18451025 10.55808656 0.18451025 10.55808656 -1 15 C-1.33 15 -1.66 15 -2 15 C-2.66 11.7 -3.32 8.4 -4 5 C-10.81254763 9.98479095 -16.4558885 15.85195989 -17.88671875 24.4296875 C-18.43569614 28.61062957 -18.76073176 32.79083226 -19 37 C-19.33 37 -19.66 37 -20 37 C-22.25474095 21.62676624 -22.25474095 21.62676624 -17.15625 14.49609375 C-4.63380282 0 -4.63380282 0 0 0 Z " fill="#7E9BD2" transform="translate(28,92)"/>
<path d="M0 0 C2 1 2 1 3.2890625 4.47265625 C7.36817847 17.97743307 8.00342233 29.97604368 6 44 C5.67 44 5.34 44 5 44 C4.19327041 38.35289288 4.04899978 33.08117293 4.25 27.375 C4.44218028 19.90388077 2.73193289 14.01940772 -0.00390625 7.109375 C-0.9752569 4.0772373 -1.19196416 2.88355402 0 0 Z " fill="#7897D1" transform="translate(11,140)"/>
<path d="M0 0 C0.87140625 0.15984375 1.7428125 0.3196875 2.640625 0.484375 C9.84242958 1.84242958 9.84242958 1.84242958 11 3 C12.4887186 3.08669432 13.981445 3.10703494 15.47265625 3.09765625 C16.82133789 3.09282227 16.82133789 3.09282227 18.19726562 3.08789062 C19.61555664 3.07532227 19.61555664 3.07532227 21.0625 3.0625 C22.01189453 3.05798828 22.96128906 3.05347656 23.93945312 3.04882812 C26.29303065 3.0370011 28.64648477 3.02052025 31 3 C27.09809596 6.90190404 22.28559172 6.33627456 17.05273438 6.40039062 C7.44932286 6.25552994 -1.7921304 3.52491173 -11 1 C-6.89259922 -1.31152425 -4.66118281 -0.90216442 0 0 Z " fill="#688ACB" transform="translate(141,8)"/>
<path d="M0 0 C0.66 0 1.32 0 2 0 C2.25652344 0.845625 2.51304688 1.69125 2.77734375 2.5625 C5.56421589 10.81989894 8.53851411 16.29215771 16 21 C19.92073647 22.92266884 23.88217546 24.55074872 28 26 C28.33 25.34 28.66 24.68 29 24 C29.33 24.99 29.66 25.98 30 27 C28.296875 28.1171875 28.296875 28.1171875 26 29 C23.640625 28.3203125 23.640625 28.3203125 21.25 27.125 C20.45078125 26.73570312 19.6515625 26.34640625 18.828125 25.9453125 C18.22484375 25.63335937 17.6215625 25.32140625 17 25 C17 24.34 17 23.68 17 23 C16.34 22.814375 15.68 22.62875 15 22.4375 C9.62283757 19.860943 5.34149378 16.03387766 2.0625 11.0625 C0.76333603 7.31785092 0.34022577 3.94661893 0 0 Z " fill="#6B8ECF" transform="translate(27,233)"/>
<path d="M0 0 C0.66 0.33 1.32 0.66 2 1 C2.71517998 12.91966635 1.83240316 20.53376475 -6.19140625 29.72265625 C-9.3675924 33.24847387 -12.61083995 36.67785724 -16 40 C-16.33 40 -16.66 40 -17 40 C-17 38.02 -17 36.04 -17 34 C-16.01 34 -15.02 34 -14 34 C-5.23014735 26.11843813 -0.92765123 19.08328464 -0.25 7.5 C-0.13766187 4.99937518 -0.06074433 2.50266644 0 0 Z " fill="#6B8ECF" transform="translate(310,178)"/>
<path d="M0 0 C0.66 1.32 1.32 2.64 2 4 C2.66 4 3.32 4 4 4 C3.67 4.95261719 3.34 5.90523437 3 6.88671875 C1.66978325 11.53662256 1.85252301 16.01581102 2 20.8125 C2.05090182 22.50625807 2.09300842 24.2003105 2.125 25.89453125 C2.14820313 26.63550049 2.17140625 27.37646973 2.1953125 28.13989258 C2 30 2 30 0 32 C-4.32156485 22.00638128 -1.56889476 10.37991982 0 0 Z " fill="#85A0D3" transform="translate(13,182)"/>
<path d="M0 0 C0.33 0 0.66 0 1 0 C1.05945801 0.60360352 1.11891602 1.20720703 1.18017578 1.82910156 C2.72709358 17.55448963 2.72709358 17.55448963 8.79296875 31.953125 C10 34 10 34 10 36 C10.66 36 11.32 36 12 36 C12.33 35.34 12.66 34.68 13 34 C13.1953125 40.0546875 13.1953125 40.0546875 13 42 C12.34 42.66 11.68 43.32 11 44 C10.7421875 42.98808594 10.484375 41.97617188 10.21875 40.93359375 C9.10680463 37.04080612 7.40016038 33.64140377 5.5 30.0625 C0.22597007 19.73188414 -0.26840485 11.45194008 0 0 Z " fill="#4F79C6" transform="translate(292,89)"/>
<path d="M0 0 C3.2775842 0.58553792 4.92539337 1.58474495 7.3125 3.875 C15.09582406 10.67928959 23.11525182 10.63107117 33 11 C30.18906338 13.81093662 28.2986708 13.33299068 24.375 13.375 C13.4221909 13.17403103 7.58385656 8.67163268 0 1 C0 0.67 0 0.34 0 0 Z " fill="#6B8ECE" transform="translate(95,293)"/>
<path d="M0 0 C4.93021622 8.13876963 1.77317634 20.21327796 0 29 C-0.33 29 -0.66 29 -1 29 C-2.12176683 19.57715859 -3.04524918 9.13574753 0 0 Z " fill="#8CA5D6" transform="translate(306,100)"/>
<path d="M0 0 C-0.97839844 0.47308594 -1.95679688 0.94617188 -2.96484375 1.43359375 C-11.03489728 5.45781103 -18.55685141 9.52120234 -24 17 C-24 17.99 -24 18.98 -24 20 C-24.99 20 -25.98 20 -27 20 C-25.82563399 13.60465736 -21.01633696 9.52409804 -16.0078125 5.73828125 C-5.089318 -1.69643933 -5.089318 -1.69643933 0 0 Z " fill="#5C84CC" transform="translate(258,264)"/>
<path d="M0 0 C3.41144233 0.29223894 4.74883225 0.74749625 7.203125 3.21484375 C7.87859375 4.11332031 8.5540625 5.01179688 9.25 5.9375 C9.93578125 6.83339844 10.6215625 7.72929688 11.328125 8.65234375 C13.9722182 12.36519424 14.09869319 14.46011307 14 19 C12 18 12 18 10.8125 14.4375 C9.00611736 9.23474167 5.75293656 5.96536693 2 2 C1.34 5.3 0.68 8.6 0 12 C-0.33 12 -0.66 12 -1 12 C-1.14285714 3.42857143 -1.14285714 3.42857143 0 0 Z " fill="#7091CE" transform="translate(292,84)"/>
<path d="M0 0 C1.58628608 0.59637091 3.16892059 1.20245925 4.75 1.8125 C5.63171875 2.14894531 6.5134375 2.48539063 7.421875 2.83203125 C9.93039808 3.96846822 11.87279005 5.26542927 14 7 C12 8 12 8 9.6171875 7.22265625 C8.25980469 6.64837891 8.25980469 6.64837891 6.875 6.0625 C5.96492188 5.68222656 5.05484375 5.30195312 4.1171875 4.91015625 C3.41851562 4.60980469 2.71984375 4.30945312 2 4 C2.66 5.98 3.32 7.96 4 10 C3.34 10.66 2.68 11.32 2 12 C0.68 8.7 -0.64 5.4 -2 2 C-1.34 2 -0.68 2 0 2 C0 1.34 0 0.68 0 0 Z " fill="#698CCE" transform="translate(262,48)"/>
<path d="M0 0 C2.31 0.66 4.62 1.32 7 2 C7 2.66 7 3.32 7 4 C7.85851562 4.28617188 8.71703125 4.57234375 9.6015625 4.8671875 C14.734375 6.578125 19.8671875 8.2890625 25 10 C25 10.66 25 11.32 25 12 C20.63742312 11.42221824 17.02448377 10.32845186 13 8.5625 C9.90245628 7.21135788 6.91060296 5.9723395 3.6796875 4.97265625 C2.35324219 4.49119141 2.35324219 4.49119141 1 4 C0.125 1.875 0.125 1.875 0 0 Z " fill="#5980C8" transform="translate(173,7)"/>
<path d="M0 0 C-1.54269924 4.72065967 -3.07794619 9.41664092 -5 14 C-6.10844919 10.67465243 -5.84454356 8.37817425 -5 5 C-5.55429687 5.37253906 -6.10859375 5.74507812 -6.6796875 6.12890625 C-7.40414062 6.60199219 -8.12859375 7.07507812 -8.875 7.5625 C-9.59429687 8.03816406 -10.31359375 8.51382813 -11.0546875 9.00390625 C-11.69664063 9.33261719 -12.33859375 9.66132812 -13 10 C-13.66 9.67 -14.32 9.34 -15 9 C-13.58680023 7.87064804 -12.16928595 6.74669374 -10.75 5.625 C-9.96109375 4.99851562 -9.1721875 4.37203125 -8.359375 3.7265625 C-3.26696833 0 -3.26696833 0 0 0 Z " fill="#547DC9" transform="translate(51,50)"/>
<path d="M0 0 C0.66 0 1.32 0 2 0 C-1.90542231 8.44923095 -8.64156136 14.11641677 -17 18 C-19.8046875 18.66015625 -19.8046875 18.66015625 -22 19 C-19.89746986 16.69567904 -18.02750129 15.39095718 -15.1875 14.125 C-9.73242361 11.47738967 -5.70479894 8.18336086 -2.25 3.1875 C-1.5075 2.135625 -0.765 1.08375 0 0 Z " fill="#537DCA" transform="translate(86,27)"/>
<path d="M0 0 C1.04027344 -0.01417969 2.08054687 -0.02835937 3.15234375 -0.04296875 C6.01296613 0.18357718 7.63920151 0.71016381 10.0625 2.1875 C6.34970531 3.42509823 2.74943654 3.54358897 -1.125 3.75 C-2.24938477 3.81477539 -2.24938477 3.81477539 -3.39648438 3.88085938 C-5.24328375 3.98672685 -7.09036834 4.0875976 -8.9375 4.1875 C-8.9375 3.1975 -8.9375 2.2075 -8.9375 1.1875 C-5.74593552 0.12364517 -3.35252524 0.02072018 0 0 Z " fill="#8EA7D5" transform="translate(118.9375,3.8125)"/>
<path d="M0 0 C0.66 0.66 1.32 1.32 2 2 C1.21625 2.804375 0.4325 3.60875 -0.375 4.4375 C-4.80045702 10.45511861 -4.45789695 18.80702074 -5 26 C-5.33 26 -5.66 26 -6 26 C-7.3562846 16.75260503 -8.05851746 10.66851531 -2.4453125 2.7578125 C-1 1 -1 1 0 0 Z " fill="#87A3D8" transform="translate(14,103)"/>
<path d="M0 0 C0 0.33 0 0.66 0 1 C-0.89460938 1.10957031 -1.78921875 1.21914062 -2.7109375 1.33203125 C-10.06468982 2.29632926 -16.98500155 3.57546137 -24 6 C-24 5.34 -24 4.68 -24 4 C-24.99 3.67 -25.98 3.34 -27 3 C-17.76200185 0.10990002 -9.58317155 -0.35347764 0 0 Z " fill="#6E90CE" transform="translate(204,5)"/>
<path d="M0 0 C0 0.33 0 0.66 0 1 C-7.69006362 2.409845 -13.5538155 1.23007556 -21 -1 C-14.5690789 -4.61913309 -6.90352672 -1.43071077 0 0 Z " fill="#8FA9D8" transform="translate(151,10)"/>
<path d="M0 0 C0 0.33 0 0.66 0 1 C-6.79199994 2.81027872 -12.57627362 3.13756246 -19.5625 2.625 C-20.47580078 2.56828125 -21.38910156 2.5115625 -22.33007812 2.453125 C-24.55437982 2.3133783 -26.77724097 2.16217968 -29 2 C-29 1.67 -29 1.34 -29 1 C-27.35451172 0.90912109 -27.35451172 0.90912109 -25.67578125 0.81640625 C-24.22134346 0.73195502 -22.76691695 0.64730934 -21.3125 0.5625 C-20.59126953 0.52318359 -19.87003906 0.48386719 -19.12695312 0.44335938 C-16.09887015 0.26361016 -13.22701672 0.04643524 -10.25 -0.5625 C-6.6842739 -1.25583563 -3.57250472 -0.54495835 0 0 Z " fill="#93ABD7" transform="translate(142,302)"/>
<path d="M0 0 C0.33 0 0.66 0 1 0 C1.46979202 9.15224452 0.97368162 17.65421223 -5 25 C-5.99 24.67 -6.98 24.34 -8 24 C-7.236875 23.01 -6.47375 22.02 -5.6875 21 C-1.68039647 14.7161331 -1.08024868 7.2367879 0 0 Z " fill="#567EC9" transform="translate(291,223)"/>
<path d="M0 0 C0.33 0 0.66 0 1 0 C1.55413528 9.83077035 -1.04474147 17.14775471 -5 26 C-5.66 26 -6.32 26 -7 26 C-7.1875 23.1875 -7.1875 23.1875 -7 20 C-6.02191006 18.97855981 -5.01984515 17.97975296 -4 17 C-1.45609816 11.32514206 -0.41517375 6.18465718 0 0 Z " fill="#4B76C8" transform="translate(315,151)"/>
<path d="M0 0 C0.66 0.66 1.32 1.32 2 2 C1.401875 2.680625 0.80375 3.36125 0.1875 4.0625 C-3.48324707 8.99178892 -5.25899525 13.92376103 -6 20 C-6.66 19.34 -7.32 18.68 -8 18 C-8 10.81014105 -5.10932628 5.10932628 0 0 Z " fill="#7393D0" transform="translate(35,59)"/>
<path d="M0 0 C0.66 0.33 1.32 0.66 2 1 C-7.96390831 11.67940172 -7.96390831 11.67940172 -14 14 C-16.234375 13.62109375 -16.234375 13.62109375 -18 13 C-16 11 -16 11 -12.375 9.3125 C-7.54855092 6.98767196 -3.86560744 3.65999002 0 0 Z " fill="#668BCF" transform="translate(223,291)"/>
<path d="M0 0 C1.32 0.33 2.64 0.66 4 1 C4.74023321 2.97395523 5.38761101 4.98271862 6 7 C7.30023109 9.35566559 8.6678704 11.65548439 10.07421875 13.94921875 C11 16 11 16 10 19 C9.16151196 17.54462432 8.32936066 16.08559627 7.5 14.625 C7.0359375 13.81289062 6.571875 13.00078125 6.09375 12.1640625 C5 10 5 10 5 8 C4.34 8 3.68 8 3 8 C2.67 8.66 2.34 9.32 2 10 C1.34 6.7 0.68 3.4 0 0 Z " fill="#4C76C6" transform="translate(12,178)"/>
<path d="M0 0 C5.67130721 1.48534236 9.98626607 4.00426002 13.265625 8.8828125 C14.22952931 10.55946296 15.12161178 12.27700772 16 14 C15.01 14.495 15.01 14.495 14 15 C13.46375 14.113125 12.9275 13.22625 12.375 12.3125 C9.02174616 7.30039267 4.80905771 3.87940102 -1 2 C-0.67 1.34 -0.34 0.68 0 0 Z " fill="#6287CD" transform="translate(238,20)"/>
<path d="M0 0 C0 0.66 0 1.32 0 2 C-6.16645379 4.52653315 -10.43592388 5.31281522 -17 4 C-17 3.67 -17 3.34 -17 3 C-14.91798472 2.49453964 -12.83432933 1.99583165 -10.75 1.5 C-9.58984375 1.2215625 -8.4296875 0.943125 -7.234375 0.65625 C-4 0 -4 0 0 0 Z " fill="#819FD5" transform="translate(256,278)"/>
<path d="M0 0 C-1.38993239 2.77986478 -2.94737735 2.95923901 -5.8125 4.0625 C-6.68519531 4.40410156 -7.55789062 4.74570312 -8.45703125 5.09765625 C-10.63020969 5.86878408 -12.75332971 6.49201161 -15 7 C-14.67 5.35 -14.34 3.7 -14 2 C-13.113125 1.87625 -12.22625 1.7525 -11.3125 1.625 C-8.04109142 1.12691191 -8.04109142 1.12691191 -5.3125 -0.125 C-3 -1 -3 -1 0 0 Z " fill="#7E9CD4" transform="translate(65,46)"/>
<path d="M0 0 C2.81631641 2.49493496 4.40955981 5.26562818 6.1875 8.5625 C6.71730469 9.53316406 7.24710937 10.50382812 7.79296875 11.50390625 C9 14 9 14 9 16 C3.25 14.25 3.25 14.25 1 12 C1.99 11.67 2.98 11.34 4 11 C3.566875 10.06027344 3.566875 10.06027344 3.125 9.1015625 C2.75375 8.28429688 2.3825 7.46703125 2 6.625 C1.62875 5.81289063 1.2575 5.00078125 0.875 4.1640625 C0 2 0 2 0 0 Z " fill="#4D77C6" transform="translate(253,34)"/>
<path d="M0 0 C0.98484375 0.11085938 1.9696875 0.22171875 2.984375 0.3359375 C3.73203125 0.43132812 4.4796875 0.52671875 5.25 0.625 C4.92 2.275 4.59 3.925 4.25 5.625 C2.93 5.955 1.61 6.285 0.25 6.625 C1.24 4.975 2.23 3.325 3.25 1.625 C1.4246875 1.9034375 1.4246875 1.9034375 -0.4375 2.1875 C-3.77977939 2.61493182 -6.46968417 2.54758883 -9.75 1.625 C-6.30824478 -0.52199969 -3.9779708 -0.47356795 0 0 Z " fill="#8CA6D7" transform="translate(222.75,284.375)"/>
<path d="M0 0 C4.75 0.875 4.75 0.875 7 2 C8.03515625 4.14453125 8.03515625 4.14453125 9.0625 6.8125 C9.40410156 7.68519531 9.74570312 8.55789063 10.09765625 9.45703125 C10.86878408 11.63020969 11.49201161 13.75332971 12 16 C8.0205436 12.84387941 7.08802468 9.67620446 5.90625 4.92578125 C5.45765625 3.97251953 5.45765625 3.97251953 5 3 C3.00045951 2.31773223 3.00045951 2.31773223 1 2 C0.67 1.34 0.34 0.68 0 0 Z " fill="#4F79C6" transform="translate(54,260)"/>
<path d="M0 0 C0.99 0 1.98 0 3 0 C3.22126178 2.45779976 3.42750395 4.91527648 3.625 7.375 C3.68945312 8.07367188 3.75390625 8.77234375 3.8203125 9.4921875 C3.96119739 11.32369111 3.98761659 13.16312748 4 15 C3.34 15.66 2.68 16.32 2 17 C-0.44064587 11.35600642 -0.19289099 6.02248522 0 0 Z " fill="#97AED9" transform="translate(11,197)"/>
<path d="M0 0 C0 0.33 0 0.66 0 1 C-2.31 1.66 -4.62 2.32 -7 3 C-6.01 3.66 -5.02 4.32 -4 5 C-4 5.66 -4 6.32 -4 7 C-5.98 6.34 -7.96 5.68 -10 5 C-10 4.34 -10 3.68 -10 3 C-10.66 2.34 -11.32 1.68 -12 1 C-7.53763531 -0.80619523 -4.68965706 -1.11658501 0 0 Z " fill="#6E8FCE" transform="translate(152,299)"/>
<path d="M0 0 C0.66 0.66 1.32 1.32 2 2 C1.67 2.99 1.34 3.98 1 5 C0.18273437 4.83628906 -0.63453125 4.67257813 -1.4765625 4.50390625 C-5.48768176 3.93025394 -9.33248121 3.88998396 -13.375 3.9375 C-14.47908203 3.94426758 -14.47908203 3.94426758 -15.60546875 3.95117188 C-17.40368158 3.96284858 -19.20185197 3.98077989 -21 4 C-21 3.67 -21 3.34 -21 3 C-10.605 2.505 -10.605 2.505 0 2 C0 1.34 0 0.68 0 0 Z " fill="#B3C3E0" transform="translate(173,8)"/>
<path d="M0 0 C-0.33 1.32 -0.66 2.64 -1 4 C-1.7425 4.144375 -2.485 4.28875 -3.25 4.4375 C-5.91958229 4.93059024 -5.91958229 4.93059024 -8.125 5.6875 C-10 6 -10 6 -13 4 C-11.2097939 3.32942113 -9.41778511 2.6636531 -7.625 2 C-6.62726563 1.62875 -5.62953125 1.2575 -4.6015625 0.875 C-2 0 -2 0 0 0 Z " fill="#809ED5" transform="translate(268,258)"/>
<path d="M0 0 C0.66 0 1.32 0 2 0 C2.66 1.65 3.32 3.3 4 5 C3.01 5 2.02 5 1 5 C0.67 9.95 0.34 14.9 0 20 C-0.33 20 -0.66 20 -1 20 C-1.02696009 17.2291017 -1.04681952 14.4584655 -1.0625 11.6875 C-1.07087891 10.90181641 -1.07925781 10.11613281 -1.08789062 9.30664062 C-1.09111328 8.54931641 -1.09433594 7.79199219 -1.09765625 7.01171875 C-1.10289307 6.31522217 -1.10812988 5.61872559 -1.11352539 4.90112305 C-1 3 -1 3 0 0 Z " fill="#D0DAEB" transform="translate(304,132)"/>
<path d="M0 0 C0.99 0.66 1.98 1.32 3 2 C2.01 2 1.02 2 0 2 C-0.33 2.66 -0.66 3.32 -1 4 C-1.886875 3.690625 -2.77375 3.38125 -3.6875 3.0625 C-6.46709155 2.1709329 -9.13136375 1.50622993 -12 1 C-8.18089578 -1.70519882 -4.33006752 -1.10252233 0 0 Z " fill="#86A2D5" transform="translate(185,301)"/>
<path d="M0 0 C0.66 0.33 1.32 0.66 2 1 C0.68 2.32 -0.64 3.64 -2 5 C1.3 5.33 4.6 5.66 8 6 C8 6.33 8 6.66 8 7 C3.38 7 -1.24 7 -6 7 C-4.11656068 3.23312136 -3.30867531 2.20578354 0 0 Z " fill="#CFD8E9" transform="translate(197,297)"/>
<path d="M0 0 C4.23429756 1.31061591 8.07407404 2.94356259 12 5 C11.67 5.66 11.34 6.32 11 7 C6.76570244 5.68938409 2.92592596 4.05643741 -1 2 C-0.67 1.34 -0.34 0.68 0 0 Z " fill="#7394D1" transform="translate(162,1)"/>
<path d="M0 0 C2.97 0.99 5.94 1.98 9 3 C9.33 2.34 9.66 1.68 10 1 C10.33 1.99 10.66 2.98 11 4 C9.296875 5.1171875 9.296875 5.1171875 7 6 C4.640625 5.3203125 4.640625 5.3203125 2.25 4.125 C1.45078125 3.73570312 0.6515625 3.34640625 -0.171875 2.9453125 C-1.07679687 2.47738281 -1.07679687 2.47738281 -2 2 C-1.34 1.34 -0.68 0.68 0 0 Z " fill="#89A4D6" transform="translate(46,256)"/>
<path d="M0 0 C-4.75890529 2.37945265 -7.54838765 3.10095578 -13 3 C-13 2.34 -13 1.68 -13 1 C-11.58622218 0.63447197 -10.16879424 0.28304505 -8.75 -0.0625 C-7.96109375 -0.25972656 -7.1721875 -0.45695312 -6.359375 -0.66015625 C-3.89605178 -1.01497267 -2.34395868 -0.76877544 0 0 Z " fill="#7393CE" transform="translate(104,24)"/>
<path d="M0 0 C3.65882521 3.3621637 6.14420341 6.36050852 8 11 C7.67 11.66 7.34 12.32 7 13 C5.82479354 11.40207898 4.66008753 9.79643092 3.5 8.1875 C2.8503125 7.29417969 2.200625 6.40085938 1.53125 5.48046875 C0 3 0 3 0 0 Z " fill="#6C8FCF" transform="translate(51,248)"/>
<path d="M0 0 C0.99 0.33 1.98 0.66 3 1 C0.69 3.31 -1.62 5.62 -4 8 C-4.99 7.67 -5.98 7.34 -7 7 C-7 5.35 -7 3.7 -7 2 C-6.01 3.485 -6.01 3.485 -5 5 C-3.35 3.35 -1.7 1.7 0 0 Z " fill="#7393D1" transform="translate(34,83)"/>
<path d="M0 0 C-1.10842386 3.32527158 -1.64603321 3.71119458 -4.4375 5.5625 C-6.53166854 6.96589896 -8.20558012 8.20558012 -10 10 C-10.33 9.01 -10.66 8.02 -11 7 C-9.54634731 5.82750647 -8.08692581 4.66216184 -6.625 3.5 C-5.40683594 2.52546875 -5.40683594 2.52546875 -4.1640625 1.53125 C-2 0 -2 0 0 0 Z " fill="#648AD0" transform="translate(200,294)"/>
<path d="M0 0 C0.33 0 0.66 0 1 0 C2.45184478 4.53701494 3.23509196 8.18061476 3 13 C0.30202742 11.00584635 -0.02681526 9.87486211 -0.75 6.5 C-1 3 -1 3 0 0 Z " fill="#7B9AD4" transform="translate(304,154)"/>
<path d="M0 0 C4.59306496 1.4859916 7.43569245 3.85014682 11 7 C10.67 7.99 10.34 8.98 10 10 C6.66666667 6.66666667 3.33333333 3.33333333 0 0 Z " fill="#5F85CC" transform="translate(275,55)"/>
<path d="M0 0 C3 3 6 6 9 9 C8.67 9.99 8.34 10.98 8 12 C6.66081194 10.37982158 5.3288031 8.75370657 4 7.125 C3.2575 6.22007813 2.515 5.31515625 1.75 4.3828125 C0 2 0 2 0 0 Z " fill="#5E85CD" transform="translate(227,22)"/>
<path d="M0 0 C0.66 0.33 1.32 0.66 2 1 C0.73046875 2.46484375 -0.5390625 3.9296875 -1.80859375 5.39453125 C-3.20871231 7.10712971 -3.20871231 7.10712971 -4 10 C-4.66 10 -5.32 10 -6 10 C-5.49477778 5.62140745 -2.82172778 3.18348776 0 0 Z " fill="#547DC9" transform="translate(95,17)"/>
<path d="M0 0 C0 0.66 0 1.32 0 2 C-4.95 1.67 -9.9 1.34 -15 1 C-15 0.67 -15 0.34 -15 0 C-4.44191344 -1.33257403 -4.44191344 -1.33257403 0 0 Z " fill="#85A2D8" transform="translate(209,6)"/>
<path d="M0 0 C0.33 0.66 0.66 1.32 1 2 C-6.42857143 2.28571429 -6.42857143 2.28571429 -10 0 C-6.26840331 -1.24386556 -3.81984796 -0.77811718 0 0 Z " fill="#7696D0" transform="translate(176,299)"/>
<path d="M0 0 C1.79093191 -0.08086147 3.58289628 -0.13912702 5.375 -0.1875 C6.87160156 -0.23970703 6.87160156 -0.23970703 8.3984375 -0.29296875 C9.25695312 -0.19628906 10.11546875 -0.09960938 11 0 C11.66 0.99 12.32 1.98 13 3 C11.39504433 2.88557539 9.79101881 2.75805306 8.1875 2.625 C7.29417969 2.55539062 6.40085937 2.48578125 5.48046875 2.4140625 C3 2 3 2 0 0 Z " fill="#DAE0EC" transform="translate(80,288)"/>
<path d="M0 0 C0.66 0.66 1.32 1.32 2 2 C0.68 4.31 -0.64 6.62 -2 9 C-2.66 9 -3.32 9 -4 9 C-2.94124926 5.59687262 -1.99097846 2.98646769 0 0 Z " fill="#7192D1" transform="translate(53,41)"/>
<path d="M0 0 C5.75 0.75 5.75 0.75 8 3 C5.39417629 3.93065133 4.35801776 4.14917407 1.75 3.0625 C1.1725 2.711875 0.595 2.36125 0 2 C0 1.34 0 0.68 0 0 Z " fill="#7898D2" transform="translate(105,301)"/>
<path d="M0 0 C1.5625 1.6875 1.5625 1.6875 3 4 C2.6875 6.75 2.6875 6.75 2 9 C1.731875 8.4225 1.46375 7.845 1.1875 7.25 C-0.01719859 4.9674132 -1.40798115 3.0262058 -3 1 C-2.01 0.67 -1.02 0.34 0 0 Z " fill="#3867BF" transform="translate(26,224)"/>
<path d="M0 0 C2.25245881 2.68841859 3.88213958 4.64641875 5 8 C4.01 8.495 4.01 8.495 3 9 C1.68 6.36 0.36 3.72 -1 1 C-0.67 0.67 -0.34 0.34 0 0 Z " fill="#7192D1" transform="translate(8,170)"/>
<path d="M0 0 C1.98 0.495 1.98 0.495 4 1 C3.01 1 2.02 1 1 1 C1.66 2.98 2.32 4.96 3 7 C2.34 7.66 1.68 8.32 1 9 C-1.125 3.375 -1.125 3.375 0 0 Z " fill="#91ABD9" transform="translate(263,51)"/>
<path d="M0 0 C2.97 0.99 5.94 1.98 9 3 C7.02 3.99 7.02 3.99 5 5 C2.25 3.75 2.25 3.75 0 2 C0 1.34 0 0.68 0 0 Z " fill="#7393D0" transform="translate(61,262)"/>
<path d="M0 0 C0.66 0.33 1.32 0.66 2 1 C1.25 3.4375 1.25 3.4375 0 6 C-2.125 6.8125 -2.125 6.8125 -4 7 C-2.68 4.69 -1.36 2.38 0 0 Z " fill="#7898D3" transform="translate(287,241)"/>
</svg>
